<svg width="2490" height="2490" viewBox="0 0 2490 2490" fill="none" xmlns="http://www.w3.org/2000/svg">
<path fill-rule="evenodd" clip-rule="evenodd" d="M184.027 0C82.4229 0 0 79.9134 0 178.366V2311.69C0 2410.15 82.4326 2490 184.027 2490H2305.97C2407.62 2490 2490 2410.14 2490 2311.66V178.366C2490 79.9134 2407.62 0 2305.97 0H184.027ZM756.688 962.794V2083.8H384.082V962.794H756.688ZM781.247 616.11C781.247 723.685 700.371 809.766 570.463 809.766L570.434 809.756H568.021C442.967 809.756 362.12 723.676 362.12 616.1C362.12 506.083 445.408 422.405 572.933 422.405C700.371 422.405 778.816 506.083 781.247 616.11ZM1335.51 2083.8H962.93L962.92 2083.84C962.92 2083.84 967.812 1068 962.949 962.832H1335.53V1121.51C1385.06 1045.14 1473.71 936.512 1671.34 936.512C1916.48 936.512 2100.28 1096.74 2100.28 1441.05V2083.8H1727.71V1484.16C1727.71 1333.44 1673.76 1230.65 1538.97 1230.65C1436.01 1230.65 1374.7 1299.97 1347.78 1366.94C1337.94 1390.84 1335.51 1424.39 1335.51 1457.85V2083.8Z" fill="black"/>
</svg>
