<svg width="25" height="27" viewBox="0 0 25 27" fill="none" xmlns="http://www.w3.org/2000/svg">
<path d="M12.4286 15.7546C13.6909 15.7546 14.7143 14.7312 14.7143 13.4689C14.7143 12.2065 13.6909 11.1832 12.4286 11.1832C11.1662 11.1832 10.1429 12.2065 10.1429 13.4689C10.1429 14.7312 11.1662 15.7546 12.4286 15.7546Z" fill="black"/>
<path fill-rule="evenodd" clip-rule="evenodd" d="M4.58185 10.3534C2.54945 11.268 1.57143 12.4136 1.57143 13.4689C1.57143 14.5241 2.54945 15.6697 4.58185 16.5843C6.5606 17.4748 9.33433 18.0403 12.4286 18.0403C15.5228 18.0403 18.2965 17.4748 20.2753 16.5843C22.3077 15.6697 23.2857 14.5241 23.2857 13.4689C23.2857 12.4136 22.3077 11.268 20.2753 10.3534C18.2965 9.46297 15.5228 8.89743 12.4286 8.89743C9.33433 8.89743 6.5606 9.46297 4.58185 10.3534ZM4.11286 9.31122C6.27043 8.34031 9.21099 7.75458 12.4286 7.75458C15.6462 7.75458 18.5867 8.34031 20.7443 9.31122C22.8482 10.258 24.4286 11.6838 24.4286 13.4689C24.4286 15.2539 22.8482 16.6797 20.7443 17.6265C18.5867 18.5974 15.6462 19.1831 12.4286 19.1831C9.21099 19.1831 6.27043 18.5974 4.11286 17.6265C2.00892 16.6797 0.428572 15.2539 0.428572 13.4689C0.428572 11.6838 2.00892 10.258 4.11286 9.31122Z" fill="black"/>
<path fill-rule="evenodd" clip-rule="evenodd" d="M11.2033 5.11567C9.39502 3.81286 7.91386 3.53868 7 4.0663C6.08614 4.59392 5.583 6.01373 5.80715 8.23112C6.02538 10.39 6.92248 13.0749 8.4696 15.7546C10.0167 18.4343 11.8934 20.5536 13.6539 21.8221C15.4621 23.1249 16.9433 23.399 17.8571 22.8714C18.771 22.3438 19.2741 20.924 19.05 18.7066C18.8318 16.5477 17.9347 13.8628 16.3875 11.1831C14.8404 8.50345 12.9638 6.3841 11.2033 5.11567ZM11.8713 4.18842C13.791 5.57148 15.7685 7.82521 17.3773 10.6117C18.9861 13.3982 19.9491 16.2377 20.1871 18.5917C20.4191 20.8871 19.9745 22.9686 18.4286 23.8612C16.8826 24.7537 14.8577 24.098 12.9858 22.7493C11.0662 21.3662 9.08865 19.1125 7.47986 16.326C5.87107 13.5395 4.90804 10.7 4.67009 8.34607C4.43805 6.05062 4.88264 3.9691 6.42857 3.07656C7.9745 2.18401 9.99945 2.83974 11.8713 4.18842Z" fill="black"/>
<path fill-rule="evenodd" clip-rule="evenodd" d="M19.05 8.23112C19.2741 6.01373 18.771 4.59392 17.8571 4.0663C16.9433 3.53868 15.4621 3.81286 13.6539 5.11567C11.8934 6.38411 10.0167 8.50345 8.4696 11.1831C6.92248 13.8628 6.02538 16.5477 5.80715 18.7066C5.583 20.924 6.08614 22.3438 7 22.8714C7.91386 23.399 9.39502 23.1249 11.2033 21.8221C12.9638 20.5536 14.8404 18.4343 16.3875 15.7546C17.9347 13.0749 18.8318 10.39 19.05 8.23112ZM20.1871 8.34607C19.9491 10.7 18.9861 13.5395 17.3773 16.326C15.7685 19.1125 13.791 21.3662 11.8713 22.7493C9.99945 24.098 7.9745 24.7537 6.42857 23.8612C4.88264 22.9686 4.43805 20.8871 4.67009 18.5917C4.90804 16.2377 5.87107 13.3982 7.47986 10.6117C9.08865 7.82521 11.0662 5.57148 12.9858 4.18842C14.8577 2.83974 16.8826 2.18401 18.4286 3.07656C19.9745 3.9691 20.4191 6.05062 20.1871 8.34607Z" fill="black"/>
</svg>
