<svg width="24" height="23" viewBox="0 0 24 23" fill="none" xmlns="http://www.w3.org/2000/svg">
<path d="M12.0001 13.7545C13.2624 13.7545 14.2858 12.7311 14.2858 11.4688C14.2858 10.2064 13.2624 9.18311 12.0001 9.18311C10.7377 9.18311 9.71436 10.2064 9.71436 11.4688C9.71436 12.7311 10.7377 13.7545 12.0001 13.7545Z" fill="black"/>
<path fill-rule="evenodd" clip-rule="evenodd" d="M4.15328 8.35321C2.12088 9.26781 1.14286 10.4134 1.14286 11.4687C1.14286 12.5239 2.12088 13.6695 4.15328 14.5841C6.13203 15.4746 8.90576 16.0401 12 16.0401C15.0942 16.0401 17.8679 15.4746 19.8467 14.5841C21.8791 13.6695 22.8571 12.5239 22.8571 11.4687C22.8571 10.4134 21.8791 9.26781 19.8467 8.35321C17.8679 7.46278 15.0942 6.89724 12 6.89724C8.90576 6.89724 6.13203 7.46278 4.15328 8.35321ZM3.68429 7.31103C5.84186 6.34012 8.78242 5.75439 12 5.75439C15.2176 5.75439 18.1581 6.34012 20.3157 7.31103C22.4196 8.25781 24 9.68361 24 11.4687C24 13.2537 22.4196 14.6795 20.3157 15.6263C18.1581 16.5972 15.2176 17.1829 12 17.1829C8.78242 17.1829 5.84186 16.5972 3.68429 15.6263C1.58035 14.6795 0 13.2537 0 11.4687C0 9.68361 1.58035 8.25781 3.68429 7.31103Z" fill="black"/>
<path fill-rule="evenodd" clip-rule="evenodd" d="M10.7747 3.1159C8.96646 1.81309 7.4853 1.53891 6.57144 2.06653C5.65758 2.59415 5.15444 4.01396 5.37859 6.23135C5.59682 8.39023 6.49392 11.0751 8.04104 13.7548C9.58814 16.4345 11.4648 18.5538 13.2253 19.8223C15.0335 21.1251 16.5147 21.3992 17.4285 20.8716C18.3424 20.344 18.8455 18.9242 18.6214 16.7068C18.4032 14.5479 17.5061 11.863 15.9589 9.18333C14.4118 6.50368 12.5352 4.38433 10.7747 3.1159ZM11.4427 2.18865C13.3624 3.57171 15.3399 5.82544 16.9487 8.61193C18.5575 11.3984 19.5205 14.2379 19.7585 16.5919C19.9905 18.8873 19.5459 20.9688 18 21.8614C16.454 22.7539 14.4291 22.0982 12.5572 20.7495C10.6376 19.3664 8.66009 17.1127 7.0513 14.3262C5.44251 11.5397 4.47948 8.70023 4.24153 6.3463C4.00949 4.05085 4.45408 1.96933 6.00001 1.07679C7.54594 0.184242 9.57089 0.839972 11.4427 2.18865Z" fill="black"/>
<path fill-rule="evenodd" clip-rule="evenodd" d="M18.6214 6.23135C18.8455 4.01396 18.3424 2.59415 17.4285 2.06653C16.5147 1.53891 15.0335 1.81309 13.2253 3.1159C11.4648 4.38434 9.58814 6.50368 8.04104 9.18333C6.49392 11.863 5.59682 14.5479 5.37859 16.7068C5.15444 18.9242 5.65758 20.344 6.57144 20.8716C7.4853 21.3992 8.96646 21.1251 10.7747 19.8223C12.5352 18.5538 14.4118 16.4345 15.9589 13.7548C17.5061 11.0751 18.4032 8.39023 18.6214 6.23135ZM19.7585 6.3463C19.5205 8.70023 18.5575 11.5397 16.9487 14.3262C15.3399 17.1127 13.3624 19.3664 11.4427 20.7495C9.57089 22.0982 7.54594 22.7539 6.00001 21.8614C4.45408 20.9688 4.00949 18.8873 4.24153 16.5919C4.47948 14.2379 5.44251 11.3984 7.0513 8.61193C8.66009 5.82544 10.6376 3.57171 12.5572 2.18865C14.4291 0.839972 16.454 0.184242 18 1.07679C19.5459 1.96933 19.9905 4.05085 19.7585 6.3463Z" fill="black"/>
</svg>
