<svg width="79" height="75" viewBox="0 0 79 75" fill="none" xmlns="http://www.w3.org/2000/svg">
<path d="M54.4496 52.4C57.3496 52.1 59.5496 49.6 59.4496 46.6C59.3496 43.6 56.8496 41.2 53.8496 41.2H53.6496C50.5496 41.3 48.1496 43.9 48.2496 47C48.3496 48.5 48.9496 49.8 49.8496 50.7C46.4496 57.4 41.2496 62.3 33.4496 66.4C28.1496 69.2 22.6496 70.2 17.1496 69.5C12.6496 68.9 9.14962 66.9 6.94962 63.6C3.74962 58.7 3.44962 53.4 6.14962 48.1C8.04962 44.3 11.0496 41.5 12.9496 40.1C12.5496 38.8 11.9496 36.6 11.6496 35C-2.85038 45.5 -1.35038 59.7 3.04962 66.4C6.34962 71.4 13.0496 74.5 20.4496 74.5C22.4496 74.5 24.4496 74.3 26.4496 73.8C39.2496 71.3 48.9496 63.7 54.4496 52.4Z" fill="white"/>
<path d="M72.0496 40C64.4496 31.1 53.2496 26.2 40.4496 26.2H38.8496C37.9496 24.4 36.0496 23.2 33.9496 23.2H33.7496C30.6496 23.3 28.2496 25.9 28.3496 29C28.4496 32 30.9496 34.4 33.9496 34.4H34.1496C36.3496 34.3 38.2496 32.9 39.0496 31H40.8496C48.4496 31 55.6496 33.2 62.1496 37.5C67.1496 40.8 70.7496 45.1 72.7496 50.3C74.4496 54.5 74.3496 58.6 72.5496 62.1C69.7496 67.4 65.0496 70.3 58.8496 70.3C54.8496 70.3 51.0496 69.1 49.0496 68.2C47.9496 69.2 45.9496 70.8 44.5496 71.8C48.8496 73.8 53.2496 74.9 57.4496 74.9C67.0496 74.9 74.1496 69.6 76.8496 64.3C79.7496 58.5 79.5496 48.5 72.0496 40Z" fill="white"/>
<path d="M21.2496 54.1C21.3496 57.1 23.8496 59.5 26.8496 59.5H27.0496C30.1496 59.4 32.5496 56.8 32.4496 53.7C32.3496 50.7 29.8496 48.3 26.8496 48.3H26.6496C26.4496 48.3 26.1496 48.3 25.9496 48.4C21.8496 41.6 20.1496 34.2 20.7496 26.2C21.1496 20.2 23.1496 15 26.6496 10.7C29.5496 7 35.1496 5.2 38.9496 5.1C49.5496 4.9 54.0496 18.1 54.3496 23.4C55.6496 23.7 57.8496 24.4 59.3496 24.9C58.1496 8.7 48.1496 0.300003 38.5496 0.300003C29.5496 0.300003 21.2496 6.8 17.9496 16.4C13.3496 29.2 16.3496 41.5 21.9496 51.2C21.4496 51.9 21.1496 53 21.2496 54.1Z" fill="white"/>
</svg>
