<svg width="206" height="23" viewBox="0 0 206 23" fill="none" xmlns="http://www.w3.org/2000/svg">
<path d="M0.585236 18.0001V4.90918H6.08239C7.63353 4.90918 8.85796 5.21884 9.75569 5.83816C10.6591 6.45748 11.1108 7.32111 11.1108 8.42907C11.1108 9.16202 10.8551 9.76145 10.3438 10.2274C9.83808 10.6876 9.14774 10.9972 8.27274 11.1563C8.96024 11.2132 9.56251 11.3865 10.0796 11.6762C10.6023 11.966 11.0114 12.3467 11.3068 12.8183C11.6023 13.2899 11.75 13.8325 11.75 14.4461C11.75 15.1677 11.5597 15.7955 11.179 16.3296C10.804 16.858 10.2557 17.27 9.5341 17.5654C8.81819 17.8552 7.94887 18.0001 6.92614 18.0001H0.585236ZM3.47444 15.5711H6.92614C7.49433 15.5711 7.94035 15.4376 8.26421 15.1705C8.58808 14.8978 8.75001 14.5285 8.75001 14.0626C8.75001 13.5228 8.58808 13.0995 8.26421 12.7927C7.94035 12.4802 7.49433 12.324 6.92614 12.324H3.47444V15.5711ZM3.47444 10.3296H6.14205C6.56251 10.3296 6.9233 10.27 7.22444 10.1507C7.52558 10.0257 7.75569 9.85236 7.91478 9.63077C8.07387 9.4035 8.15342 9.13361 8.15342 8.82111C8.15342 8.37225 7.96876 8.01998 7.59944 7.76429C7.2358 7.50861 6.73012 7.38077 6.08239 7.38077H3.47444V10.3296Z" fill="#F9EC0E"/>
<path d="M20.0916 18.2558C18.7791 18.2558 17.6456 17.983 16.6911 17.4376C15.7422 16.8865 15.0121 16.108 14.5007 15.1024C13.9894 14.091 13.7337 12.9007 13.7337 11.5313C13.7337 10.1847 13.9894 9.00293 14.5007 7.98588C15.0178 6.96316 15.7394 6.1677 16.6655 5.59952C17.5916 5.02566 18.6797 4.73873 19.9297 4.73873C20.7365 4.73873 21.4979 4.86941 22.2138 5.13077C22.9354 5.38645 23.5717 5.78418 24.1229 6.32395C24.6797 6.86373 25.1172 7.55123 25.4354 8.38645C25.7536 9.216 25.9127 10.2046 25.9127 11.3524V12.2984H15.1825V10.2188H22.9553C22.9496 9.62793 22.8217 9.10236 22.5717 8.64214C22.3217 8.17623 21.9723 7.80975 21.5234 7.5427C21.0803 7.27566 20.5632 7.14213 19.9723 7.14213C19.3416 7.14213 18.7876 7.29554 18.3104 7.60236C17.8331 7.9035 17.4609 8.30123 17.1939 8.79554C16.9325 9.28418 16.799 9.82111 16.7933 10.4063V12.2217C16.7933 12.983 16.9325 13.6365 17.2109 14.1819C17.4894 14.7217 17.8786 15.1365 18.3786 15.4262C18.8786 15.7103 19.4638 15.8524 20.1342 15.8524C20.5831 15.8524 20.9894 15.7899 21.353 15.6649C21.7166 15.5342 22.032 15.3438 22.299 15.0938C22.5661 14.8438 22.7678 14.5342 22.9041 14.1649L25.7848 14.4887C25.603 15.2501 25.2564 15.9149 24.745 16.483C24.2394 17.0455 23.5916 17.483 22.8019 17.7955C22.0121 18.1024 21.1087 18.2558 20.0916 18.2558Z" fill="#F9EC0E"/>
<path d="M28.5227 22.9092V4.90918H31.5568V7.07395H31.7358C31.8949 6.75577 32.1193 6.4177 32.4091 6.05975C32.6989 5.69611 33.0909 5.38645 33.5852 5.13077C34.0796 4.86941 34.7102 4.73873 35.4773 4.73873C36.4886 4.73873 37.4006 4.99725 38.2131 5.51429C39.0313 6.02566 39.679 6.78418 40.1563 7.78986C40.6392 8.78986 40.8807 10.0171 40.8807 11.4717C40.8807 12.9092 40.6449 14.1308 40.1733 15.1365C39.7017 16.1421 39.0597 16.9092 38.2472 17.4376C37.4347 17.966 36.5142 18.2302 35.4858 18.2302C34.7358 18.2302 34.1136 18.1052 33.6193 17.8552C33.125 17.6052 32.7273 17.3041 32.4261 16.9518C32.1307 16.5938 31.9006 16.2558 31.7358 15.9376H31.608V22.9092H28.5227ZM31.5483 11.4546C31.5483 12.3012 31.6676 13.0427 31.9063 13.6791C32.1506 14.3154 32.5 14.8126 32.9546 15.1705C33.4148 15.5228 33.9716 15.699 34.625 15.699C35.3068 15.699 35.8779 15.5171 36.3381 15.1535C36.7983 14.7842 37.1449 14.2813 37.3778 13.645C37.6165 13.0029 37.7358 12.2728 37.7358 11.4546C37.7358 10.6421 37.6193 9.92054 37.3864 9.28986C37.1534 8.65918 36.8068 8.16486 36.3466 7.80691C35.8864 7.44895 35.3125 7.26998 34.625 7.26998C33.9659 7.26998 33.4063 7.44327 32.946 7.78986C32.4858 8.13645 32.1364 8.62225 31.8977 9.24725C31.6648 9.87225 31.5483 10.608 31.5483 11.4546Z" fill="#F9EC0E"/>
<path d="M49.233 18.2558C47.9261 18.2558 46.804 17.9688 45.8665 17.395C44.9347 16.8211 44.2159 16.0285 43.7102 15.0171C43.2102 14.0001 42.9602 12.8296 42.9602 11.5058C42.9602 10.1762 43.2159 9.00293 43.7273 7.98588C44.2386 6.96316 44.9602 6.1677 45.8921 5.59952C46.8296 5.02566 47.9375 4.73873 49.2159 4.73873C50.2784 4.73873 51.2188 4.93475 52.0369 5.32679C52.8608 5.71316 53.5171 6.26145 54.0057 6.97168C54.4943 7.67623 54.7727 8.50009 54.8409 9.44327H51.8921C51.7727 8.81259 51.4886 8.28702 51.0398 7.86657C50.5966 7.44043 50.0028 7.22736 49.2585 7.22736C48.6278 7.22736 48.0739 7.39782 47.5966 7.73873C47.1193 8.07395 46.7472 8.55691 46.4801 9.18759C46.2188 9.81827 46.0881 10.574 46.0881 11.4546C46.0881 12.3467 46.2188 13.1137 46.4801 13.7558C46.7415 14.3921 47.108 14.8836 47.5796 15.2302C48.0568 15.5711 48.6165 15.7416 49.2585 15.7416C49.7131 15.7416 50.1193 15.6563 50.4773 15.4859C50.8409 15.3097 51.1449 15.0569 51.3892 14.7274C51.6335 14.3978 51.8011 13.9972 51.8921 13.5257H54.8409C54.7671 14.4518 54.4943 15.2728 54.0227 15.9887C53.5511 16.699 52.9091 17.2558 52.0966 17.6592C51.2841 18.0569 50.3296 18.2558 49.233 18.2558Z" fill="#F9EC0E"/>
<path d="M56.424 7.44043V4.90918H67.8786V7.44043H63.6428V18.0001H60.6598V7.44043H56.424Z" fill="#F9EC0E"/>
<path d="M73.5632 18.2643C72.7337 18.2643 71.9865 18.1166 71.3217 17.8211C70.6626 17.52 70.1399 17.0768 69.7536 16.4916C69.3729 15.9063 69.1825 15.1847 69.1825 14.3268C69.1825 13.5882 69.3189 12.9774 69.5916 12.4944C69.8644 12.0115 70.2365 11.6251 70.7081 11.3353C71.1797 11.0455 71.7109 10.8268 72.3019 10.6791C72.8984 10.5257 73.5149 10.4149 74.1513 10.3467C74.9183 10.2671 75.5405 10.1961 76.0178 10.1336C76.495 10.0654 76.8416 9.96316 77.0575 9.82679C77.2791 9.68475 77.3899 9.466 77.3899 9.17054V9.11941C77.3899 8.47736 77.1996 7.9802 76.8189 7.62793C76.4382 7.27566 75.8899 7.09952 75.174 7.09952C74.4183 7.09952 73.8189 7.26429 73.3757 7.59384C72.9382 7.92338 72.6428 8.31259 72.4894 8.76145L69.6087 8.35236C69.8359 7.55691 70.2109 6.89213 70.7337 6.35804C71.2564 5.81827 71.8956 5.41486 72.6513 5.14782C73.407 4.87509 74.2422 4.73873 75.157 4.73873C75.7876 4.73873 76.4155 4.81259 77.0405 4.96032C77.6655 5.10804 78.2365 5.35236 78.7536 5.69327C79.2706 6.0285 79.6854 6.48588 79.9979 7.06543C80.3161 7.64498 80.4752 8.36941 80.4752 9.23873V18.0001H77.5092V16.2018H77.407C77.2195 16.5654 76.9553 16.9063 76.6144 17.2245C76.2791 17.537 75.8558 17.7899 75.3445 17.983C74.8388 18.1705 74.245 18.2643 73.5632 18.2643ZM74.3644 15.9972C74.9837 15.9972 75.5206 15.8751 75.9752 15.6308C76.4297 15.3808 76.7791 15.0512 77.0234 14.6421C77.2734 14.233 77.3984 13.787 77.3984 13.3041V11.7615C77.3019 11.841 77.1371 11.9149 76.9041 11.983C76.6769 12.0512 76.4212 12.1109 76.1371 12.162C75.853 12.2132 75.5717 12.2586 75.2933 12.2984C75.0149 12.3382 74.7734 12.3722 74.5689 12.4007C74.1087 12.4632 73.6967 12.5654 73.3331 12.7075C72.9695 12.8495 72.6825 13.0484 72.4723 13.3041C72.2621 13.5541 72.157 13.8779 72.157 14.2757C72.157 14.8438 72.3644 15.2728 72.7791 15.5626C73.1939 15.8524 73.7223 15.9972 74.3644 15.9972Z" fill="#F9EC0E"/>
<path d="M89.3729 18.2558C88.0604 18.2558 86.9269 17.983 85.9723 17.4376C85.0234 16.8865 84.2933 16.108 83.782 15.1024C83.2706 14.091 83.0149 12.9007 83.0149 11.5313C83.0149 10.1847 83.2706 9.00293 83.782 7.98588C84.299 6.96316 85.0206 6.1677 85.9467 5.59952C86.8729 5.02566 87.9609 4.73873 89.2109 4.73873C90.0178 4.73873 90.7791 4.86941 91.495 5.13077C92.2166 5.38645 92.853 5.78418 93.4041 6.32395C93.9609 6.86373 94.3984 7.55123 94.7166 8.38645C95.0348 9.216 95.1939 10.2046 95.1939 11.3524V12.2984H84.4638V10.2188H92.2365C92.2308 9.62793 92.103 9.10236 91.853 8.64214C91.603 8.17623 91.2536 7.80975 90.8047 7.5427C90.3615 7.27566 89.8445 7.14213 89.2536 7.14213C88.6229 7.14213 88.0689 7.29554 87.5916 7.60236C87.1144 7.9035 86.7422 8.30123 86.4752 8.79554C86.2138 9.28418 86.0803 9.82111 86.0746 10.4063V12.2217C86.0746 12.983 86.2138 13.6365 86.4922 14.1819C86.7706 14.7217 87.1598 15.1365 87.6598 15.4262C88.1598 15.7103 88.745 15.8524 89.4155 15.8524C89.8644 15.8524 90.2706 15.7899 90.6342 15.6649C90.9979 15.5342 91.3132 15.3438 91.5803 15.0938C91.8473 14.8438 92.049 14.5342 92.1854 14.1649L95.0661 14.4887C94.8842 15.2501 94.5376 15.9149 94.0263 16.483C93.5206 17.0455 92.8729 17.483 92.0831 17.7955C91.2933 18.1024 90.3899 18.2558 89.3729 18.2558Z" fill="#F9EC0E"/>
<path d="M105.338 14.412L109.224 4.90918H111.713L106.42 18.0001H104.264L99.0909 4.90918H101.554L105.338 14.412ZM100.778 4.90918V18.0001H97.804V4.90918H100.778ZM110.026 18.0001V4.90918H112.974V18.0001H110.026Z" fill="#F9EC0E"/>
<path d="M117.986 18.1876C117.469 18.1876 117.026 18.0058 116.656 17.6421C116.287 17.2785 116.105 16.8353 116.111 16.3126C116.105 15.8012 116.287 15.3637 116.656 15.0001C117.026 14.6365 117.469 14.4546 117.986 14.4546C118.486 14.4546 118.92 14.6365 119.29 15.0001C119.665 15.3637 119.855 15.8012 119.861 16.3126C119.855 16.6592 119.764 16.9745 119.588 17.2586C119.418 17.5427 119.19 17.77 118.906 17.9404C118.628 18.1052 118.321 18.1876 117.986 18.1876Z" fill="#F9EC0E"/>
<path d="M128.756 18.2558C127.478 18.2558 126.37 17.9745 125.433 17.412C124.495 16.8495 123.768 16.0626 123.251 15.0512C122.739 14.0399 122.484 12.858 122.484 11.5058C122.484 10.1535 122.739 8.96884 123.251 7.95179C123.768 6.93475 124.495 6.14498 125.433 5.58248C126.37 5.01998 127.478 4.73873 128.756 4.73873C130.035 4.73873 131.143 5.01998 132.08 5.58248C133.018 6.14498 133.742 6.93475 134.254 7.95179C134.771 8.96884 135.029 10.1535 135.029 11.5058C135.029 12.858 134.771 14.0399 134.254 15.0512C133.742 16.0626 133.018 16.8495 132.08 17.412C131.143 17.9745 130.035 18.2558 128.756 18.2558ZM128.773 15.7842C129.467 15.7842 130.046 15.5938 130.512 15.2132C130.978 14.8268 131.325 14.3097 131.552 13.662C131.785 13.0143 131.901 12.2927 131.901 11.4972C131.901 10.6961 131.785 9.97168 131.552 9.32395C131.325 8.67054 130.978 8.15066 130.512 7.76429C130.046 7.37793 129.467 7.18475 128.773 7.18475C128.063 7.18475 127.472 7.37793 127.001 7.76429C126.535 8.15066 126.185 8.67054 125.952 9.32395C125.725 9.97168 125.612 10.6961 125.612 11.4972C125.612 12.2927 125.725 13.0143 125.952 13.662C126.185 14.3097 126.535 14.8268 127.001 15.2132C127.472 15.5938 128.063 15.7842 128.773 15.7842Z" fill="#F9EC0E"/>
<path d="M146.639 10.1762V12.7075H139.668V10.1762H146.639ZM140.622 4.90918V18.0001H137.648V4.90918H140.622ZM148.659 4.90918V18.0001H145.693V4.90918H148.659Z" fill="#F9EC0E"/>
<path d="M150.877 18.0001L150.86 15.4603H151.312C151.653 15.4603 151.94 15.3836 152.173 15.2302C152.406 15.0768 152.599 14.8211 152.752 14.4632C152.906 14.0995 153.025 13.6109 153.11 12.9972C153.195 12.3836 153.255 11.6194 153.289 10.7046L153.519 4.90918H163.065V18.0001H160.082V7.44043H156.323L156.119 11.6592C156.067 12.7501 155.945 13.6961 155.752 14.4972C155.565 15.2927 155.298 15.949 154.951 16.466C154.61 16.983 154.181 17.3694 153.664 17.6251C153.147 17.8751 152.536 18.0001 151.832 18.0001H150.877Z" fill="#F9EC0E"/>
<path d="M169.938 18.2643C169.109 18.2643 168.362 18.1166 167.697 17.8211C167.038 17.52 166.515 17.0768 166.129 16.4916C165.748 15.9063 165.558 15.1847 165.558 14.3268C165.558 13.5882 165.694 12.9774 165.967 12.4944C166.239 12.0115 166.612 11.6251 167.083 11.3353C167.555 11.0455 168.086 10.8268 168.677 10.6791C169.273 10.5257 169.89 10.4149 170.526 10.3467C171.293 10.2671 171.916 10.1961 172.393 10.1336C172.87 10.0654 173.217 9.96316 173.433 9.82679C173.654 9.68475 173.765 9.466 173.765 9.17054V9.11941C173.765 8.47736 173.575 7.9802 173.194 7.62793C172.813 7.27566 172.265 7.09952 171.549 7.09952C170.793 7.09952 170.194 7.26429 169.751 7.59384C169.313 7.92338 169.018 8.31259 168.864 8.76145L165.984 8.35236C166.211 7.55691 166.586 6.89213 167.109 6.35804C167.631 5.81827 168.271 5.41486 169.026 5.14782C169.782 4.87509 170.617 4.73873 171.532 4.73873C172.163 4.73873 172.79 4.81259 173.415 4.96032C174.04 5.10804 174.612 5.35236 175.129 5.69327C175.646 6.0285 176.06 6.48588 176.373 7.06543C176.691 7.64498 176.85 8.36941 176.85 9.23873V18.0001H173.884V16.2018H173.782C173.594 16.5654 173.33 16.9063 172.989 17.2245C172.654 17.537 172.231 17.7899 171.719 17.983C171.214 18.1705 170.62 18.2643 169.938 18.2643ZM170.739 15.9972C171.359 15.9972 171.896 15.8751 172.35 15.6308C172.805 15.3808 173.154 15.0512 173.398 14.6421C173.648 14.233 173.773 13.787 173.773 13.3041V11.7615C173.677 11.841 173.512 11.9149 173.279 11.983C173.052 12.0512 172.796 12.1109 172.512 12.162C172.228 12.2132 171.947 12.2586 171.668 12.2984C171.39 12.3382 171.148 12.3722 170.944 12.4007C170.484 12.4632 170.072 12.5654 169.708 12.7075C169.344 12.8495 169.058 13.0484 168.847 13.3041C168.637 13.5541 168.532 13.8779 168.532 14.2757C168.532 14.8438 168.739 15.2728 169.154 15.5626C169.569 15.8524 170.097 15.9972 170.739 15.9972Z" fill="#F9EC0E"/>
<path d="M182.927 13.824L188.168 4.90918H191.339V18.0001H188.356V9.07679L183.131 18.0001H179.952V4.90918H182.927V13.824ZM187.325 0.40918H189.634C189.634 1.4035 189.273 2.21032 188.552 2.82963C187.836 3.44327 186.864 3.75009 185.637 3.75009C184.421 3.75009 183.452 3.44327 182.731 2.82963C182.015 2.21032 181.66 1.4035 181.665 0.40918H183.958C183.958 0.818271 184.083 1.18475 184.333 1.50861C184.589 1.82679 185.023 1.98588 185.637 1.98588C186.239 1.98588 186.668 1.82679 186.924 1.50861C187.185 1.19043 187.319 0.823953 187.325 0.40918Z" fill="#F9EC0E"/>
<path d="M203.499 10.1762V12.7075H196.527V10.1762H203.499ZM197.482 4.90918V18.0001H194.507V4.90918H197.482ZM205.518 4.90918V18.0001H202.553V4.90918H205.518Z" fill="#F9EC0E"/>
</svg>
